<svg xmlns="http://www.w3.org/2000/svg" width="235.272" height="38.629" viewBox="0 0 235.272 38.629"><g transform="translate(-6283 29)"><path d="M8.886-6.745H6.848L3.715-10.707l-.829.97v2.993H1.241v-9.373H2.886v4.455l3.668-4.455H8.591L4.783-11.705Zm2.558-.141a.944.944,0,0,1-.689.3.944.944,0,0,1-.689-.3.959.959,0,0,1-.3-.7.921.921,0,0,1,.3-.682.955.955,0,0,1,.689-.288.955.955,0,0,1,.689.288.921.921,0,0,1,.3.682A.959.959,0,0,1,11.443-6.885Zm7.391.309a3.306,3.306,0,0,1-2.5-1l.773-1.251a2.075,2.075,0,0,0,1.6.787A1.575,1.575,0,0,0,19.9-8.508a1.706,1.706,0,0,0,.45-1.23v-6.38H22v6.394a3.03,3.03,0,0,1-.871,2.347A3.251,3.251,0,0,1,18.835-6.576Zm6.211-.309a.944.944,0,0,1-.689.3.944.944,0,0,1-.689-.3.959.959,0,0,1-.3-.7.921.921,0,0,1,.3-.682.955.955,0,0,1,.689-.288.955.955,0,0,1,.689.288.921.921,0,0,1,.3.682A.959.959,0,0,1,25.046-6.885Zm8.993.309a5.087,5.087,0,0,1-3.822-1.49l.927-1.279A3.854,3.854,0,0,0,34.11-8.037a2.188,2.188,0,0,0,1.405-.379,1.144,1.144,0,0,0,.464-.913.91.91,0,0,0-.4-.752,2.643,2.643,0,0,0-1.012-.443q-.611-.141-1.314-.351a13.836,13.836,0,0,1-1.314-.464,2.309,2.309,0,0,1-1.012-.815,2.288,2.288,0,0,1-.4-1.363,2.455,2.455,0,0,1,.941-1.974,3.751,3.751,0,0,1,2.473-.78,4.789,4.789,0,0,1,3.5,1.321l-.927,1.223a3.7,3.7,0,0,0-2.726-1.082,1.857,1.857,0,0,0-1.145.323,1.008,1.008,0,0,0-.429.843.745.745,0,0,0,.3.6,2.3,2.3,0,0,0,.78.393q.478.148,1.061.281a9.984,9.984,0,0,1,1.166.344,6,6,0,0,1,1.061.5,2.214,2.214,0,0,1,.78.815,2.429,2.429,0,0,1,.3,1.23,2.681,2.681,0,0,1-.92,2.08A3.919,3.919,0,0,1,34.039-6.576ZM44.789-7.6A3.293,3.293,0,0,1,42.26-6.576a3.282,3.282,0,0,1-2.529-1.033,3.6,3.6,0,0,1-.956-2.536,3.565,3.565,0,0,1,.956-2.536A3.3,3.3,0,0,1,42.26-13.7a3.3,3.3,0,0,1,2.529,1.019,3.565,3.565,0,0,1,.956,2.536A3.621,3.621,0,0,1,44.789-7.6ZM42.26-7.883a1.731,1.731,0,0,0,1.433-.653,2.5,2.5,0,0,0,.52-1.609,2.481,2.481,0,0,0-.52-1.595,1.731,1.731,0,0,0-1.433-.653,1.736,1.736,0,0,0-1.426.653,2.46,2.46,0,0,0-.527,1.595,2.481,2.481,0,0,0,.527,1.609A1.736,1.736,0,0,0,42.26-7.883ZM57.113-6.745H55.638v-4.426q0-1.223-1.124-1.223a1.7,1.7,0,0,0-.9.267,2.094,2.094,0,0,0-.675.632v4.75H51.464v-4.426q0-1.223-1.11-1.223a1.664,1.664,0,0,0-.892.267,2.277,2.277,0,0,0-.682.632v4.75H47.3v-6.787H48.78v.913a2.861,2.861,0,0,1,.9-.731A2.631,2.631,0,0,1,51-13.7a2.078,2.078,0,0,1,1.208.33,1.62,1.62,0,0,1,.646.906,2.678,2.678,0,0,1,.949-.864A2.652,2.652,0,0,1,55.16-13.7a1.927,1.927,0,0,1,1.447.52,2.112,2.112,0,0,1,.506,1.532Zm7.6,0H63.24v-.745a2.755,2.755,0,0,1-2.206.913,2.459,2.459,0,0,1-1.63-.6,2.038,2.038,0,0,1-.717-1.644,2,2,0,0,1,.7-1.658,2.554,2.554,0,0,1,1.644-.562,2.768,2.768,0,0,1,2.206.871v-1.012a1.107,1.107,0,0,0-.443-.92,1.812,1.812,0,0,0-1.145-.344,2.73,2.73,0,0,0-2.009.871L59.024-12.6a3.949,3.949,0,0,1,2.853-1.1,3.367,3.367,0,0,1,2.045.583,2.156,2.156,0,0,1,.794,1.862Zm-3.091-.843a1.9,1.9,0,0,0,1.616-.7V-9.33a1.9,1.9,0,0,0-1.616-.7,1.6,1.6,0,0,0-1.047.337,1.086,1.086,0,0,0-.415.885,1.086,1.086,0,0,0,.415.885A1.6,1.6,0,0,0,61.624-7.588Zm6.45-7.04a.88.88,0,0,1-.646.267.88.88,0,0,1-.646-.267.88.88,0,0,1-.267-.646.88.88,0,0,1,.267-.646.88.88,0,0,1,.646-.267.88.88,0,0,1,.646.267.88.88,0,0,1,.267.646A.88.88,0,0,1,68.074-14.628Zm.084,7.883H66.683v-6.787h1.475Zm1.686,2.656.211-1.321a1.369,1.369,0,0,0,.562.112.968.968,0,0,0,.984-.59l.337-.773-2.8-6.872H70.73l1.981,5.087,1.981-5.087h1.574l-3.274,8.01a2.336,2.336,0,0,1-.906,1.173,2.777,2.777,0,0,1-1.412.358A3,3,0,0,1,69.844-4.089Zm13.04-2.656H81.409v-.745a2.756,2.756,0,0,1-2.206.913,2.459,2.459,0,0,1-1.63-.6,2.038,2.038,0,0,1-.717-1.644,2,2,0,0,1,.7-1.658,2.554,2.554,0,0,1,1.644-.562,2.768,2.768,0,0,1,2.206.871v-1.012a1.107,1.107,0,0,0-.443-.92,1.812,1.812,0,0,0-1.145-.344,2.73,2.73,0,0,0-2.009.871L77.194-12.6a3.949,3.949,0,0,1,2.853-1.1,3.367,3.367,0,0,1,2.045.583,2.156,2.156,0,0,1,.794,1.862Zm-3.091-.843a1.9,1.9,0,0,0,1.616-.7V-9.33a1.9,1.9,0,0,0-1.616-.7,1.6,1.6,0,0,0-1.047.337,1.086,1.086,0,0,0-.415.885,1.086,1.086,0,0,0,.415.885A1.6,1.6,0,0,0,79.793-7.588Z" transform="translate(6327.84 -4.105)" fill="#162443"/><g transform="translate(6283 -29)"><path d="M44.892,52.333l-3.164-.673.1-.483.479.1a1.333,1.333,0,0,1-.371-.436.611.611,0,0,1-.035-.367,1.074,1.074,0,0,1,.29-.515l.459.291a.774.774,0,0,0-.2.368.528.528,0,0,0,.039.339.589.589,0,0,0,.252.262,2.113,2.113,0,0,0,.607.223l1.657.353Zm-1.937.809a3.976,3.976,0,0,1-.127.911,2.049,2.049,0,0,0-.07.486.48.48,0,0,0,.706.407.719.719,0,0,0,.31-.4,1.132,1.132,0,0,0,.073-.576.855.855,0,0,0-.224-.475,1.318,1.318,0,0,0-.48-.279Zm1.16.4a2.082,2.082,0,0,1,.132.679,1.7,1.7,0,0,1-.118.6,1.173,1.173,0,0,1-.536.672.863.863,0,0,1-.724.029.879.879,0,0,1-.367-.257.892.892,0,0,1-.193-.377,1.352,1.352,0,0,1-.027-.433,3.861,3.861,0,0,1,.1-.484,4.991,4.991,0,0,0,.174-.981l-.132-.054a.6.6,0,0,0-.5-.024.91.91,0,0,0-.4.516.969.969,0,0,0-.079.583.832.832,0,0,0,.351.427l-.261.473a1.327,1.327,0,0,1-.433-.423,1.05,1.05,0,0,1-.131-.57,2.165,2.165,0,0,1,.156-.726,1.945,1.945,0,0,1,.333-.593.9.9,0,0,1,.366-.269.868.868,0,0,1,.41-.026,3.158,3.158,0,0,1,.482.156l.683.262a7.646,7.646,0,0,0,.915.314,1.213,1.213,0,0,0,.413.01l-.205.535A1.16,1.16,0,0,1,44.115,53.539Zm-1.992,5.133-3.907-2.165.266-.48,1.4.777a1.228,1.228,0,0,1,.081-1.064,1.3,1.3,0,0,1,.428-.477.823.823,0,0,1,.526-.143,1.809,1.809,0,0,1,.69.252l1.794.994-.267.48-1.793-.994a.85.85,0,0,0-.61-.135.665.665,0,0,0-.409.35.889.889,0,0,0-.111.463.709.709,0,0,0,.152.434,1.57,1.57,0,0,0,.478.369l1.548.858Zm-.894,1.095-2.549-1.992.338-.433,2.549,1.992Zm-3.022-2.361-.5-.389.338-.433.5.389Zm1.54,4.038L36.54,60.137l.4-.424,1.891.813q.306.131.618.293c-.092-.152-.2-.341-.312-.569l-.953-1.872.385-.413,1.53,3.1Zm-2.712.259a3.991,3.991,0,0,1-.565.725,2.05,2.05,0,0,0-.3.386.479.479,0,0,0,.408.705.714.714,0,0,0,.469-.193,1.126,1.126,0,0,0,.351-.462.856.856,0,0,0,.043-.523,1.324,1.324,0,0,0-.276-.482Zm.807.923a2.091,2.091,0,0,1-.226.654,1.715,1.715,0,0,1-.4.464,1.178,1.178,0,0,1-.8.314.862.862,0,0,1-.641-.338.879.879,0,0,1-.19-.406.9.9,0,0,1,.022-.423A1.347,1.347,0,0,1,35.8,62.5a3.905,3.905,0,0,1,.327-.37,4.952,4.952,0,0,0,.641-.763l-.087-.113a.6.6,0,0,0-.419-.269.911.911,0,0,0-.6.248.97.97,0,0,0-.359.465.831.831,0,0,0,.091.545l-.463.28a1.334,1.334,0,0,1-.163-.583,1.052,1.052,0,0,1,.171-.559,2.163,2.163,0,0,1,.5-.551,1.948,1.948,0,0,1,.584-.348.9.9,0,0,1,.451-.05.882.882,0,0,1,.368.183,3.166,3.166,0,0,1,.339.376l.46.569a7.624,7.624,0,0,0,.636.729,1.226,1.226,0,0,0,.352.215l-.445.361A1.149,1.149,0,0,1,37.84,62.624Zm-3.591,4.189-.3-.426a1.234,1.234,0,0,0,.3-.1.6.6,0,0,0,.23-.191.487.487,0,0,0,.079-.235,2.521,2.521,0,0,0-.044-.439c-.006-.033-.012-.079-.02-.142l-2.6-2.286.522-.278,1.474,1.338q.282.254.559.552a7.428,7.428,0,0,1-.147-.757l-.275-1.989.484-.258.458,3.483a6.447,6.447,0,0,1,.073.793,1.086,1.086,0,0,1-.109.508.794.794,0,0,1-.339.324A1.1,1.1,0,0,1,34.249,66.814Zm-4.063-1.575a1.4,1.4,0,0,0,.551.794.792.792,0,0,0,.685.09.777.777,0,0,0,.482-.477,1.357,1.357,0,0,0-.055-.931,1.517,1.517,0,0,0-.559-.838.785.785,0,0,0-.7-.089.76.76,0,0,0-.48.481A1.471,1.471,0,0,0,30.186,65.238Zm2.165.963-.133-.387a1,1,0,0,1-.7.75,1.268,1.268,0,0,1-.742.03,1.4,1.4,0,0,1-.67-.4,2.056,2.056,0,0,1-.454-.773,2.312,2.312,0,0,1-.134-.883,1.272,1.272,0,0,1,.262-.729,1.3,1.3,0,0,1,.615-.435,1.084,1.084,0,0,1,.989.131l-.522-1.515.515-.178,1.454,4.223ZM29,67.127l-.617-3.175.539-.105.617,3.176Zm-.732-3.765-.121-.62.539-.105.121.62Zm-1.911,4.065-2.113-4.3.638-.056L26.319,66.2c.116.251.215.488.3.708.049-.249.107-.5.177-.749l.919-3.338.6-.053-1.353,4.6Zm-4.868-2.036a3.993,3.993,0,0,1-.918-.047,2.034,2.034,0,0,0-.49-.027.479.479,0,0,0-.344.739.717.717,0,0,0,.427.274,1.128,1.128,0,0,0,.58.022.857.857,0,0,0,.454-.265,1.318,1.318,0,0,0,.236-.5Zm-.294,1.19a2.078,2.078,0,0,1-.665.191,1.705,1.705,0,0,1-.611-.065,1.176,1.176,0,0,1-.716-.476.864.864,0,0,1-.092-.719.874.874,0,0,1,.224-.388.887.887,0,0,1,.359-.225,1.341,1.341,0,0,1,.43-.064,3.859,3.859,0,0,1,.491.055,5.007,5.007,0,0,0,.993.088c.023-.072.037-.117.042-.136a.6.6,0,0,0-.02-.5.911.911,0,0,0-.549-.351.972.972,0,0,0-.587-.028.832.832,0,0,0-.395.387l-.494-.219a1.334,1.334,0,0,1,.384-.468,1.051,1.051,0,0,1,.556-.18,2.163,2.163,0,0,1,.737.092,1.956,1.956,0,0,1,.62.28.9.9,0,0,1,.3.341.871.871,0,0,1,.061.406,3.132,3.132,0,0,1-.113.493l-.2.7a7.437,7.437,0,0,0-.233.939,1.209,1.209,0,0,0,.026.412L21.188,67A1.157,1.157,0,0,1,21.193,66.581Zm-5.581-.329.162-.493a1.253,1.253,0,0,0,.264.177.6.6,0,0,0,.291.068.487.487,0,0,0,.235-.079,2.543,2.543,0,0,0,.324-.3c.023-.024.056-.057.1-.1l.258-3.457.535.25L17.6,64.3c-.023.253-.057.512-.105.779a7.633,7.633,0,0,1,.516-.573l1.424-1.416.5.232-2.505,2.462a6.5,6.5,0,0,1-.59.536,1.088,1.088,0,0,1-.471.219.8.8,0,0,1-.463-.076A1.085,1.085,0,0,1,15.612,66.252Zm-.665-1.834,1.617-2.8.476.275-1.617,2.8ZM16.865,61.1l.316-.547.475.275-.316.547Zm-2.05,1.29a4.03,4.03,0,0,1-.827-.4,2.042,2.042,0,0,0-.44-.216.48.48,0,0,0-.606.546.718.718,0,0,0,.286.419,1.128,1.128,0,0,0,.525.248.858.858,0,0,0,.521-.067,1.327,1.327,0,0,0,.414-.371Zm-.735.981a2.076,2.076,0,0,1-.686-.085,1.7,1.7,0,0,1-.537-.3,1.178,1.178,0,0,1-.474-.718.864.864,0,0,1,.2-.7.878.878,0,0,1,.358-.27.9.9,0,0,1,.418-.067,1.335,1.335,0,0,1,.42.109,3.847,3.847,0,0,1,.43.243,4.954,4.954,0,0,0,.88.469l.092-.109a.6.6,0,0,0,.176-.465.911.911,0,0,0-.368-.538.976.976,0,0,0-.529-.255.838.838,0,0,0-.515.2l-.37-.394a1.334,1.334,0,0,1,.536-.281,1.052,1.052,0,0,1,.582.051,2.172,2.172,0,0,1,.643.373,1.953,1.953,0,0,1,.462.5.9.9,0,0,1,.142.431.874.874,0,0,1-.1.4,3.139,3.139,0,0,1-.3.41l-.46.568a7.661,7.661,0,0,0-.581.774,1.206,1.206,0,0,0-.137.389l-.446-.361A1.156,1.156,0,0,1,14.079,63.367Zm-5.4-4.893,2.478-2.08.315.376-.348.292a1.145,1.145,0,0,1,1.035.413,1.06,1.06,0,0,1,.264.547.793.793,0,0,1-.111.517,1.164,1.164,0,0,1,1.077.4.983.983,0,0,1,.271.739,1.136,1.136,0,0,1-.462.726l-1.7,1.428-.35-.417L12.71,60.1a1.515,1.515,0,0,0,.33-.346.476.476,0,0,0,.054-.3.61.61,0,0,0-.145-.309.765.765,0,0,0-.539-.288,1,1,0,0,0-.7.294l-1.44,1.208-.353-.42,1.61-1.351a.929.929,0,0,0,.335-.456.508.508,0,0,0-.142-.454.793.793,0,0,0-.369-.249.689.689,0,0,0-.456.011,2.008,2.008,0,0,0-.576.368L9.034,58.893Zm.054-3.483a1.374,1.374,0,0,0-.706.664.9.9,0,0,0,.62,1.213,1.414,1.414,0,0,0,.967-.189,1.336,1.336,0,0,0,.687-.656.9.9,0,0,0-.617-1.212A1.37,1.37,0,0,0,8.735,54.991Zm-.256-.5a1.665,1.665,0,0,1,1.413-.159,1.505,1.505,0,0,1,.782.743,1.451,1.451,0,0,1,.106,1.171,1.661,1.661,0,0,1-.884.925,2.138,2.138,0,0,1-.961.279,1.325,1.325,0,0,1-.743-.233,1.59,1.59,0,0,1-.531-.607,1.453,1.453,0,0,1-.111-1.177A1.738,1.738,0,0,1,8.479,54.488ZM7.235,50.883l.192.526a1.221,1.221,0,0,0-.484.321,1.008,1.008,0,0,0-.22.524,1.709,1.709,0,0,0,.05.7,1.651,1.651,0,0,0,.251.551.832.832,0,0,0,.366.3.64.64,0,0,0,.4.023.577.577,0,0,0,.323-.214.9.9,0,0,0,.151-.456,8.171,8.171,0,0,0,.005-.825,4.055,4.055,0,0,1,.046-.905,1.211,1.211,0,0,1,.278-.569,1.022,1.022,0,0,1,.5-.295,1.133,1.133,0,0,1,.659.021,1.19,1.19,0,0,1,.577.426,2.143,2.143,0,0,1,.359.752,2.237,2.237,0,0,1,.072.888,1.265,1.265,0,0,1-.3.686,1.364,1.364,0,0,1-.623.394l-.188-.537a.917.917,0,0,0,.538-.465,1.2,1.2,0,0,0,.008-.808,1.253,1.253,0,0,0-.392-.7.592.592,0,0,0-.521-.115.508.508,0,0,0-.338.271,2.346,2.346,0,0,0-.077.943,5.962,5.962,0,0,1-.019,1.029,1.371,1.371,0,0,1-.291.675,1.112,1.112,0,0,1-.566.343,1.206,1.206,0,0,1-.7-.023A1.348,1.348,0,0,1,6.66,53.9a2.048,2.048,0,0,1-.392-.786,2.555,2.555,0,0,1-.092-1.027,1.422,1.422,0,0,1,.347-.76A1.5,1.5,0,0,1,7.235,50.883Z" transform="translate(-6.157 -28.798)" fill="#a12023"/><path d="M40.694,25.979q.291-.333.576-.664.317-.395.23-.644a1,1,0,0,0-.164-.3.775.775,0,0,0-.287-.214l-.36.383c.1.08.2.159.278.237a.6.6,0,0,1,.14.165c.012.036-.012.1-.074.192q-.282.4-.567.787Zm3.126-2.822.146.362-2.208.892-.151.684,2.575-1.04.17.42.5-.2-.532-1.317Zm-.786-1.564.253.456-.687.381-.125-.225a.083.083,0,0,0-.082-.038.274.274,0,0,0-.127.038.382.382,0,0,0-.2.225l-.193.61a.351.351,0,0,0-.011.129.256.256,0,0,0,.024.1.181.181,0,0,0,.106.088.16.16,0,0,0,.131-.011l.231-.128.372.67.522-.289-.372-.671.687-.381.25.451.467-.259-.78-1.407Zm-.684-1.045.206.331L40.537,22.14l-.03.7,2.355-1.471.24.384.453-.283-.753-1.2Zm-.282-.416.249.308.415-.336-.9-1.109-.415.337.364.449a.183.183,0,0,1,.007.144.3.3,0,0,1-.1.133.418.418,0,0,1-.236.094.231.231,0,0,1-.212-.087l-.166-.205a.311.311,0,0,0-.156.078,1.205,1.205,0,0,0-.386.612.774.774,0,0,0,.1.747,1.089,1.089,0,0,0,.564.377l.557-.451a.967.967,0,0,1-.442-.091.95.95,0,0,1-.347-.264.339.339,0,0,1-.069-.171.16.16,0,0,1,.055-.157.53.53,0,0,0,.427.107.924.924,0,0,0,.45-.2A.8.8,0,0,0,42.068,20.132ZM40.2,18.876a.509.509,0,0,0-.443-.134.923.923,0,0,0-.52.318,1.248,1.248,0,0,0-.247.689,4.009,4.009,0,0,0,0,.991l.235.107a2.574,2.574,0,0,1,.292-1.437.427.427,0,0,1,.262-.152.3.3,0,0,1,.239.085c.1.092.117.169.057.234l-.356.382.189.451.414-.444a.233.233,0,0,1,.177-.079.257.257,0,0,1,.181.073.441.441,0,0,1,.108.161A.669.669,0,0,0,40.9,19.8a.31.31,0,0,0-.088-.275l-.046-.043a.3.3,0,0,0-.2-.08.4.4,0,0,0-.223.05.6.6,0,0,0,.008-.276A.535.535,0,0,0,40.2,18.876Zm.159-1.3-.364.391,1.273,1.187.365-.391Zm-1.494-.459.307.24L37.705,19.23l.212.668,1.71-2.188.357.278.329-.421-1.119-.874ZM38.107,16l-.283.453,1.039.649.283-.453Zm.413,2.125a.991.991,0,0,1-.764-.07c-.107-.067-.14-.144-.1-.233a.378.378,0,0,1,.4-.152,1.294,1.294,0,0,1,.542.194l.035-.519a1.037,1.037,0,0,0-.669-.192.647.647,0,0,0-.481.326.753.753,0,0,0-.082.612.808.808,0,0,0,.354.507.691.691,0,0,0,.2.085.534.534,0,0,0,.214.008Zm-2.442-1.676-.328.644a.894.894,0,0,1,.342-.048.787.787,0,0,1,.3.084.326.326,0,0,1,.079.171.289.289,0,0,1-.031.164.589.589,0,0,1-.229.229,1.058,1.058,0,0,1-.33.136.412.412,0,0,0-.058.224.311.311,0,0,0,.2.227.343.343,0,0,0,.379-.065,1.2,1.2,0,0,0,.345-.428,1.057,1.057,0,0,0,.093-.693.8.8,0,0,0-.428-.6A.406.406,0,0,0,36.078,16.445Zm.58-.516,1.092.556.242-.476L36.9,15.454Zm-.836-1.738c-.091-.105-.171-.193-.24-.265a1.372,1.372,0,0,0-.328-.284l-.569-.253.061.667.35.156a2.863,2.863,0,0,1,.552.383,1.5,1.5,0,0,1,.422.443l.4.179q-.093-.578-.173-.971a8.511,8.511,0,0,0-.243-.968c-.1-.3-.19-.47-.282-.51l-.568-.253.059.672.178.08a1.388,1.388,0,0,1,.234.524Q35.785,14.106,35.822,14.192Zm-.536,1.163.366.134-.815,2.237.408.57.95-2.609.425.155.183-.5-1.334-.486Zm.01.036.147-.513-1.19-.341-.148.513Zm-.033,1.024a1.077,1.077,0,0,1-.709.124.243.243,0,0,1-.177-.319q.059-.206.787-.193l-.057-.487a1.519,1.519,0,0,0-.7.113A.709.709,0,0,0,34,16.11a.892.892,0,0,0,.122.581.756.756,0,0,0,.458.363.844.844,0,0,0,.239.033.908.908,0,0,0,.268-.044Zm-3.1,1.7a.728.728,0,0,0-.155-.531.663.663,0,0,0-.49-.239.949.949,0,0,0-.413.05.722.722,0,0,0-.316.29l.286.417a1.015,1.015,0,0,1,.261-.269.389.389,0,0,1,.229-.076.249.249,0,0,1,.177.088.243.243,0,0,1,.063.181.345.345,0,0,1-.119.256.618.618,0,0,1-.442.1,1.082,1.082,0,0,1-.646-.4,3.244,3.244,0,0,1-.443-.6l-.339-.024q.44.654.451.668a2.535,2.535,0,0,0,.48.519,1.105,1.105,0,0,0,.6.237.763.763,0,0,0,.578-.161A.706.706,0,0,0,32.165,18.114ZM30.8,14.73h.39v2.381l.578.4V14.73h.452V14.2H30.8Zm.054-.086-.038-.533-1.416.1.037.533Zm-.8.586a.388.388,0,0,0-.305.188.683.683,0,0,0-.1.438,1.542,1.542,0,0,0,.266.737,5.271,5.271,0,0,0,.679.791l.241-.162a2.6,2.6,0,0,1-.522-.571,1.2,1.2,0,0,1-.236-.535.3.3,0,0,1,.058-.209.276.276,0,0,1,.217-.1l.834-.058-.042-.6Zm-3.66.2.375-.108.656,2.289.665.221-.766-2.669.435-.125-.147-.513-1.365.391Zm-1.329-.007.2.5,1.136-.459-.2-.5Zm1.962.915a.99.99,0,0,1-.506.577c-.117.048-.2.029-.247-.056a.379.379,0,0,1,.114-.415,1.31,1.31,0,0,1,.476-.325l-.4-.333a1.036,1.036,0,0,0-.549.428.648.648,0,0,0-.02.581.754.754,0,0,0,.447.426.805.805,0,0,0,.618.011.663.663,0,0,0,.184-.108.533.533,0,0,0,.132-.168Zm-2.343-.759a5.478,5.478,0,0,0-1.092-.552,1.226,1.226,0,0,0-.788-.117l-.568.253.536.4.35-.156a.775.775,0,0,1,.488.014,2.868,2.868,0,0,1,.719.316Zm-.761,1.54a.477.477,0,0,0-.183.364.957.957,0,0,0,.143.485,1.176,1.176,0,0,0,.61.517.914.914,0,0,0,.821-.01l.128-.093a1.82,1.82,0,0,1,.255.111.479.479,0,0,1,.194.18l.39-.217q-.111-.1-.175-.147a.791.791,0,0,0-.37-.162.975.975,0,0,0,.052-.269.439.439,0,0,0-.062-.178.932.932,0,0,0-.206-.281.339.339,0,0,0-.391.008.4.4,0,0,0-.184.22.3.3,0,0,0,.154.4.324.324,0,0,1-.1.086.471.471,0,0,1-.392.027.488.488,0,0,1-.292-.209.468.468,0,0,1-.052-.269.267.267,0,0,1,.144-.227l.726-.4-.482-.869.456-.253-.259-.467-2.028,1.124.259.467,1.126-.624.226.407Zm-2.084.957.307-.24,1.466,1.876.7-.044L22.6,17.482l.357-.278-.329-.421-1.119.874Zm-1.01.949.281-.271,1.654,1.713.691-.117-1.929-2,.326-.314-.371-.385-1.022.987Zm-.3,1.21a.243.243,0,0,0-.044.189.3.3,0,0,0,.1.209.2.2,0,0,0,.15.05l.788.017a.293.293,0,0,0,.215-.069c.028-.031.031-.057.01-.076l-.439-.4.643-.715-.392-.353Zm-1.1-.467.4.358,1-1.107-.4-.358ZM19,21.343l.229-.316,1.926,1.4.66-.235L19.568,20.56l.266-.366-.432-.314-.835,1.149Zm-.674,1.145.2-.334,2.041,1.226.637-.292-2.38-1.43.233-.388L18.6,21l-.731,1.217Zm-1.3,1.794.5.192.669-1.742-.5-.191Zm2.592-.109a.572.572,0,0,0-.374.341.4.4,0,0,0-.007.29.331.331,0,0,0,.2.2.277.277,0,0,0,.29-.044.7.7,0,0,0,.208-.3l.05-.129.566-.194-.023-.345-.509.115a.786.786,0,0,0-.1-.42.564.564,0,0,0-.287-.262.62.62,0,0,0-.586.159,1.955,1.955,0,0,0-.453.479l.46-1.2-.487-.187-.507,1.32a.424.424,0,0,0-.009.286.281.281,0,0,0,.169.193q.305.117.757-.3t.57-.37a.163.163,0,0,1,.1.141A.449.449,0,0,1,19.622,24.173Z" transform="translate(-11.593 -8.814)" fill="#a12023"/><path d="M42.793,18.826l.223.426a.348.348,0,0,0-.159.185.415.415,0,0,0,.016.269.466.466,0,0,0,.155.24.149.149,0,0,0,.14.018.125.125,0,0,0,.074-.061.383.383,0,0,0,.007-.17,2.558,2.558,0,0,1-.019-.763.463.463,0,0,1,.313-.332.494.494,0,0,1,.43.047.856.856,0,0,1,.336.487,1,1,0,0,1,.065.556.609.609,0,0,1-.255.348l-.224-.4a.277.277,0,0,0,.116-.155.4.4,0,0,0-.022-.235.513.513,0,0,0-.137-.237.114.114,0,0,0-.109-.02.1.1,0,0,0-.065.073,1.783,1.783,0,0,0,.018.463,1.3,1.3,0,0,1-.027.568.437.437,0,0,1-.285.256.543.543,0,0,1-.468-.057.911.911,0,0,1-.365-.518,1,1,0,0,1-.049-.6.679.679,0,0,1,.291-.395m.249-.927a.455.455,0,0,0,.239-.229.325.325,0,0,0-.007-.269.329.329,0,0,0-.211-.184.438.438,0,0,0-.321.039Zm-.446.178.128.462a.772.772,0,0,1-.48-.094.845.845,0,0,1-.331-.388A.8.8,0,0,1,41.9,17.3a1.027,1.027,0,0,1,.485-.422.988.988,0,0,1,.731-.084.766.766,0,0,1,.477.427.8.8,0,0,1,.027.684,1.173,1.173,0,0,1-.64.542l-.5-1.077a.476.476,0,0,0-.249.243.36.36,0,0,0,.009.3.293.293,0,0,0,.134.144A.375.375,0,0,0,42.6,18.077Zm.463-1.9-.327.189-.162-.28-.625.361a1.789,1.789,0,0,0-.217.136.106.106,0,0,0-.031.067.135.135,0,0,0,.02.081.64.64,0,0,0,.135.143l-.3.219a.94.94,0,0,1-.249-.289.609.609,0,0,1-.079-.222.337.337,0,0,1,.021-.187.434.434,0,0,1,.127-.15,2.3,2.3,0,0,1,.282-.18l.677-.391-.109-.189.327-.189.109.188.309-.178.477.274L42.9,15.9ZM41.31,15.1a2.938,2.938,0,0,1-.218-.2.9.9,0,0,0-.21-.172.2.2,0,0,0-.191.014.232.232,0,0,0-.1.156.259.259,0,0,0,.042.2.409.409,0,0,0,.2.159.294.294,0,0,0,.194.01.924.924,0,0,0,.2-.111Zm-.023-.741-.169-.4a.669.669,0,0,1,.458,0,.917.917,0,0,1,.392.374,1.132,1.132,0,0,1,.195.438.473.473,0,0,1-.041.287.981.981,0,0,1-.322.285l-.467.3a1.89,1.89,0,0,0-.28.209,1.029,1.029,0,0,0-.155.2l-.256-.394c.02-.028.051-.066.093-.115.02-.022.032-.037.038-.044a.874.874,0,0,1-.291-.122.745.745,0,0,1-.21-.216.615.615,0,0,1-.112-.447.5.5,0,0,1,.232-.341.512.512,0,0,1,.267-.087.476.476,0,0,1,.264.072,1.6,1.6,0,0,1,.3.256,2.562,2.562,0,0,0,.348.323l.04-.026a.247.247,0,0,0,.127-.163.4.4,0,0,0-.09-.245.336.336,0,0,0-.15-.139A.343.343,0,0,0,41.287,14.355ZM39.5,14.037l-.3-.369,1.392-1.127.277.342-.2.16a.76.76,0,0,1,.313.008.375.375,0,0,1,.174.123.6.6,0,0,1,.127.3l-.414.146a.411.411,0,0,0-.08-.221.26.26,0,0,0-.149-.1.367.367,0,0,0-.223.041,2.779,2.779,0,0,0-.492.347Zm-.11-1.712a.458.458,0,0,0,.152-.294.341.341,0,0,0-.354-.357.435.435,0,0,0-.29.142Zm-.364.313.272.4a.771.771,0,0,1-.485.068.838.838,0,0,1-.439-.259.8.8,0,0,1-.261-.71,1.027,1.027,0,0,1,.321-.557.989.989,0,0,1,.664-.317.767.767,0,0,1,.591.249.8.8,0,0,1,.248.638,1.172,1.172,0,0,1-.429.721l-.825-.855a.477.477,0,0,0-.156.31.359.359,0,0,0,.106.278.292.292,0,0,0,.174.093A.372.372,0,0,0,39.023,12.638ZM37.185,10.49a.77.77,0,0,0-.185.379.375.375,0,0,0,.142.351.336.336,0,0,0,.293.059.654.654,0,0,0,.347-.265.7.7,0,0,0,.185-.418.352.352,0,0,0-.141-.283.359.359,0,0,0-.305-.07A.608.608,0,0,0,37.185,10.49Zm-.946.447,1.523-1.949.374.292-.549.7a.67.67,0,0,1,.563.123.7.7,0,0,1,.281.52.982.982,0,0,1-.251.669,1.04,1.04,0,0,1-.608.423A.682.682,0,0,1,37,11.584a.656.656,0,0,1-.192-.247A.728.728,0,0,1,36.747,11l-.162.207Zm-.757-.527.95-1.519.4.251-.949,1.519ZM36.56,8.685l.233-.372.4.251-.233.372Zm-2.891.651L34.858,7.19l.437.242-.987,1.781,1.086.6-.2.365ZM32.3,7.647a.458.458,0,0,0,0-.331.342.342,0,0,0-.48-.15.434.434,0,0,0-.19.261Zm-.174.448.425.221a.773.773,0,0,1-.4.287.844.844,0,0,1-.51-.023.8.8,0,0,1-.563-.5,1.024,1.024,0,0,1,.022-.642.987.987,0,0,1,.438-.592.767.767,0,0,1,.638-.058.8.8,0,0,1,.519.447,1.173,1.173,0,0,1-.04.838L31.53,7.7a.479.479,0,0,0,.007.347.36.36,0,0,0,.224.2.288.288,0,0,0,.2,0A.372.372,0,0,0,32.127,8.095Zm-1.645.084-.462-.107.206-.891a1.436,1.436,0,0,0,.055-.373.267.267,0,0,0-.067-.152.28.28,0,0,0-.149-.083.377.377,0,0,0-.231.016.342.342,0,0,0-.171.145,1.53,1.53,0,0,0-.128.393l-.183.791-.462-.107.4-1.745.429.1-.059.257a.734.734,0,0,1,.911-.044.486.486,0,0,1,.159.185.52.52,0,0,1,.046.215,1.463,1.463,0,0,1-.046.316Zm-3.22-1.445a.593.593,0,0,0,.1.416.414.414,0,0,0,.622.044.6.6,0,0,0,.155-.4.587.587,0,0,0-.1-.413.4.4,0,0,0-.3-.163.4.4,0,0,0-.322.12A.591.591,0,0,0,27.263,6.733Zm-.483-.06a.981.981,0,0,1,.148-.448.8.8,0,0,1,.353-.313.97.97,0,0,1,.484-.084.894.894,0,0,1,.646.31.912.912,0,0,1,.213.684.927.927,0,0,1-.308.654.886.886,0,0,1-.678.221,1.038,1.038,0,0,1-.461-.144.765.765,0,0,1-.317-.35A1.091,1.091,0,0,1,26.78,6.674Zm-.949.914.043-2.473.474.008L26.3,7.6Zm-1.219-.917-.4-.892-.269.939Zm.986.912-.542.038L24.8,7.075l-.986.069-.165.575-.528.037.788-2.534.527-.037Zm-4.164-.489a.457.457,0,0,0-.183-.275.342.342,0,0,0-.484.137.435.435,0,0,0-.017.322Zm.1.47.477-.047a.777.777,0,0,1-.176.457.845.845,0,0,1-.44.259.8.8,0,0,1-.747-.116,1.03,1.03,0,0,1-.331-.55.987.987,0,0,1,.045-.735.765.765,0,0,1,.5-.4.8.8,0,0,1,.678.092,1.171,1.171,0,0,1,.423.724l-1.147.308a.477.477,0,0,0,.2.287.361.361,0,0,0,.295.043.293.293,0,0,0,.165-.107A.371.371,0,0,0,21.532,7.564Zm-2.814.548a.646.646,0,0,0,.253.35.34.34,0,0,0,.3.026.379.379,0,0,0,.226-.232.6.6,0,0,0-.033-.419.626.626,0,0,0-.256-.345.364.364,0,0,0-.319-.023.351.351,0,0,0-.215.225A.622.622,0,0,0,18.718,8.111ZM18.7,9.244l.529-.133a.189.189,0,0,0,.105.1.356.356,0,0,0,.217-.029.544.544,0,0,0,.24-.152.23.23,0,0,0,.046-.146.746.746,0,0,0-.058-.211l-.094-.244a.641.641,0,0,1-.4.463.66.66,0,0,1-.643-.08,1.04,1.04,0,0,1-.37-.5.991.991,0,0,1-.044-.721.7.7,0,0,1,.418-.415.657.657,0,0,1,.616.076l-.09-.234.414-.159.576,1.5a1.6,1.6,0,0,1,.121.461.579.579,0,0,1-.049.283.651.651,0,0,1-.185.221,1.339,1.339,0,0,1-.355.191,1.036,1.036,0,0,1-.659.086.491.491,0,0,1-.32-.3C18.712,9.284,18.706,9.266,18.7,9.244Zm-1.973-.122A.817.817,0,0,0,17,9.447a.358.358,0,0,0,.37.007.348.348,0,0,0,.176-.257.644.644,0,0,0-.1-.419.706.706,0,0,0-.313-.335.352.352,0,0,0-.316.02.356.356,0,0,0-.182.254A.6.6,0,0,0,16.726,9.123Zm1.56.2L17.9,9.54l-.128-.23a.717.717,0,0,1-.116.326.668.668,0,0,1-.228.212.685.685,0,0,1-.583.039,1.017,1.017,0,0,1-.529-.5,1,1,0,0,1-.149-.71.7.7,0,0,1,.359-.47.672.672,0,0,1,.576-.034l-.432-.779.415-.23Zm-2.757.411a.459.459,0,0,0-.267-.2A.325.325,0,0,0,15,9.595a.329.329,0,0,0-.145.24.434.434,0,0,0,.095.309Zm.253.408.433-.207a.771.771,0,0,1-.009.489.838.838,0,0,1-.325.393.8.8,0,0,1-.741.147,1.026,1.026,0,0,1-.5-.4.988.988,0,0,1-.209-.706.766.766,0,0,1,.337-.544.8.8,0,0,1,.669-.146,1.172,1.172,0,0,1,.645.536l-.973.681a.476.476,0,0,0,.282.2.36.36,0,0,0,.292-.061.292.292,0,0,0,.119-.157A.372.372,0,0,0,15.782,10.145Zm-1.254,1.7-1.59-1.894.363-.3,1.59,1.894ZM12.85,13.487l-1.683-.837.32-.331,1.078.574-.63-1.037.318-.329,1.052.6L12.7,11.065l.325-.336.889,1.658-.317.328-1.043-.579.618,1.019ZM10.875,14.6a.6.6,0,0,0,.405.138.4.4,0,0,0,.3-.17.4.4,0,0,0,.068-.335.6.6,0,0,0-.259-.344.589.589,0,0,0-.4-.136.4.4,0,0,0-.3.168.4.4,0,0,0-.069.336A.592.592,0,0,0,10.875,14.6Zm-.306.378a.976.976,0,0,1-.3-.363.8.8,0,0,1-.079-.465.977.977,0,0,1,.186-.455.894.894,0,0,1,.606-.384.913.913,0,0,1,.693.182.925.925,0,0,1,.391.608.887.887,0,0,1-.172.692,1.044,1.044,0,0,1-.366.315.765.765,0,0,1-.465.084A1.1,1.1,0,0,1,10.569,14.98Zm.529.858-.237.411-.792-.457a1.406,1.406,0,0,0-.341-.162.268.268,0,0,0-.164.02.286.286,0,0,0-.123.119.385.385,0,0,0-.053.226.345.345,0,0,0,.088.206,1.552,1.552,0,0,0,.339.237l.7.406-.237.41-1.551-.9.22-.381.228.132a.735.735,0,0,1,.224-.884.484.484,0,0,1,.224-.1.527.527,0,0,1,.219.019,1.475,1.475,0,0,1,.289.137ZM9.35,19.54l-2.293-.927.187-.463,1.018.411-.64-1.347.252-.623.544,1.224,1.768-.345-.242.6-1.331.2.232.531.693.28Z" transform="translate(-6.607 -5.115)" fill="#a12023"/><path d="M42.064,37.953c-2.521-.659-5.23-3.977-2.517-6.975s1.375-4.594,1.423-5.807c0,0,4.477,2.691,3.979,7.3-.478,4.426-4.019,4.5-2.885,5.481" transform="translate(-22.285 -15.608)" fill="#a12023" fill-rule="evenodd"/><path d="M44.877,45.132a14.621,14.621,0,0,1-29.24,0,7.311,7.311,0,0,0,14.62-.189,7.311,7.311,0,0,0,14.62.189m-14.619-.284c0,.032,0,.063,0,.1,0-.032,0-.064,0-.1Z" transform="translate(-10.896 -26.241)" fill="#a12023" fill-rule="evenodd"/></g><path d="M1.5,0H.568V-5.336H1.5ZM6.176,0h-.84V-2.416a.8.8,0,0,0-.2-.616.837.837,0,0,0-.58-.184,1.128,1.128,0,0,0-.56.148A1.415,1.415,0,0,0,3.56-2.7V0H2.72V-3.864h.84v.52a1.773,1.773,0,0,1,.58-.436,1.753,1.753,0,0,1,.788-.18,1.254,1.254,0,0,1,.932.32,1.255,1.255,0,0,1,.316.92ZM8.7.1A2.271,2.271,0,0,1,7.04-.512l.384-.6A1.753,1.753,0,0,0,8-.732a1.826,1.826,0,0,0,.724.156A.982.982,0,0,0,9.3-.716a.433.433,0,0,0,.2-.372.357.357,0,0,0-.24-.324A2.431,2.431,0,0,0,8.672-1.6q-.344-.068-.688-.168A1.272,1.272,0,0,1,7.4-2.12a.943.943,0,0,1-.24-.672,1.037,1.037,0,0,1,.408-.832A1.7,1.7,0,0,1,8.68-3.96a2.181,2.181,0,0,1,1.5.536l-.352.592A1.473,1.473,0,0,0,8.68-3.3a.888.888,0,0,0-.516.136.406.406,0,0,0-.2.344q0,.184.24.288a2.892,2.892,0,0,0,.584.172q.344.068.688.172a1.246,1.246,0,0,1,.584.376,1.013,1.013,0,0,1,.24.7A1.061,1.061,0,0,1,9.88-.24,1.862,1.862,0,0,1,8.7.1Zm3.72,0a.88.88,0,0,1-.992-1V-3.136h-.64v-.728h.64V-4.92h.84v1.056h.784v.728h-.784v2.024a.546.546,0,0,0,.1.336.32.32,0,0,0,.272.128A.467.467,0,0,0,13-.792l.2.64A1.143,1.143,0,0,1,12.416.1ZM14.7-4.488a.5.5,0,0,1-.368.152.5.5,0,0,1-.368-.152.5.5,0,0,1-.152-.368.5.5,0,0,1,.152-.368.5.5,0,0,1,.368-.152.5.5,0,0,1,.368.152.5.5,0,0,1,.152.368A.5.5,0,0,1,14.7-4.488ZM14.744,0H13.9V-3.864h.84ZM17.1.1a.88.88,0,0,1-.992-1V-3.136h-.64v-.728h.64V-4.92h.84v1.056h.784v.728h-.784v2.024a.546.546,0,0,0,.1.336.32.32,0,0,0,.272.128.467.467,0,0,0,.368-.144l.2.64A1.143,1.143,0,0,1,17.1.1ZM22.04,0H21.2V-.512A1.749,1.749,0,0,1,19.84.1a1.264,1.264,0,0,1-.932-.316,1.229,1.229,0,0,1-.316-.908V-3.864h.84V-1.44a.792.792,0,0,0,.2.612.846.846,0,0,0,.584.18,1.128,1.128,0,0,0,.56-.148,1.371,1.371,0,0,0,.424-.356V-3.864h.84ZM24.4.1a.88.88,0,0,1-.992-1V-3.136h-.64v-.728h.64V-4.92h.84v1.056h.784v.728h-.784v2.024a.546.546,0,0,0,.1.336.32.32,0,0,0,.272.128.467.467,0,0,0,.368-.144l.2.64A1.143,1.143,0,0,1,24.4.1Zm3.28,0a1.986,1.986,0,0,1-1.456-.56,1.975,1.975,0,0,1-.568-1.472,2.012,2.012,0,0,1,.556-1.436,1.85,1.85,0,0,1,1.4-.588,1.747,1.747,0,0,1,1.376.588,2.192,2.192,0,0,1,.52,1.508v.208H26.536a1.169,1.169,0,0,0,.376.76,1.2,1.2,0,0,0,.848.3,1.5,1.5,0,0,0,1.1-.432l.384.552A2.2,2.2,0,0,1,27.68.1ZM28.7-2.256a1.137,1.137,0,0,0-.3-.708,1.013,1.013,0,0,0-.8-.308,1,1,0,0,0-.776.308,1.127,1.127,0,0,0-.3.708Zm7.1,1.768A1.875,1.875,0,0,1,34.368.1a1.869,1.869,0,0,1-1.44-.588,2.047,2.047,0,0,1-.544-1.444,2.029,2.029,0,0,1,.544-1.444,1.881,1.881,0,0,1,1.44-.58,1.881,1.881,0,0,1,1.44.58,2.029,2.029,0,0,1,.544,1.444A2.062,2.062,0,0,1,35.808-.488Zm-1.44-.16a.985.985,0,0,0,.816-.372,1.425,1.425,0,0,0,.3-.916,1.413,1.413,0,0,0-.3-.908.985.985,0,0,0-.816-.372.988.988,0,0,0-.812.372,1.4,1.4,0,0,0-.3.908,1.412,1.412,0,0,0,.3.916A.988.988,0,0,0,34.368-.648ZM38.36,0h-.84V-3.136h-.64v-.728h.64V-4.08a1.381,1.381,0,0,1,.332-.98,1.151,1.151,0,0,1,.884-.356,1.206,1.206,0,0,1,.928.336l-.328.52a.63.63,0,0,0-.44-.168q-.536,0-.536.648v.216h.784v.728H38.36Zm7.376,0H42.08V-5.336h3.656v.824h-2.72v1.376H45.68v.824H43.016V-.824h2.72Zm4.5,0h-.84V-2.416a.8.8,0,0,0-.2-.616.837.837,0,0,0-.58-.184,1.128,1.128,0,0,0-.56.148,1.415,1.415,0,0,0-.432.364V0h-.84V-3.864h.84v.52a1.773,1.773,0,0,1,.58-.436,1.753,1.753,0,0,1,.788-.18,1.254,1.254,0,0,1,.932.32,1.255,1.255,0,0,1,.316.92ZM53,1.568A2.336,2.336,0,0,1,51.376.992l.392-.608A1.561,1.561,0,0,0,53,.88a1.29,1.29,0,0,0,.812-.256A.975.975,0,0,0,54.144-.2V-.64A1.491,1.491,0,0,1,52.9.008,1.587,1.587,0,0,1,51.668-.52a2.1,2.1,0,0,1-.476-1.456,2.107,2.107,0,0,1,.472-1.456A1.584,1.584,0,0,1,52.9-3.96a1.476,1.476,0,0,1,1.24.632v-.536h.84V-.2a2,2,0,0,1-.172.86,1.271,1.271,0,0,1-.472.552,2.211,2.211,0,0,1-.628.272A2.864,2.864,0,0,1,53,1.568Zm.152-2.312a1.181,1.181,0,0,0,.564-.148,1.209,1.209,0,0,0,.428-.364V-2.7a1.209,1.209,0,0,0-.428-.364,1.181,1.181,0,0,0-.564-.148,1.007,1.007,0,0,0-.8.34,1.322,1.322,0,0,0-.3.9,1.306,1.306,0,0,0,.3.9A1.012,1.012,0,0,0,53.152-.744Zm3.816-3.744a.5.5,0,0,1-.368.152.5.5,0,0,1-.368-.152.5.5,0,0,1-.152-.368.5.5,0,0,1,.152-.368.5.5,0,0,1,.368-.152.5.5,0,0,1,.368.152.5.5,0,0,1,.152.368A.5.5,0,0,1,56.968-4.488ZM57.016,0h-.84V-3.864h.84Zm4.648,0h-.84V-2.416a.8.8,0,0,0-.2-.616.837.837,0,0,0-.58-.184,1.128,1.128,0,0,0-.56.148,1.415,1.415,0,0,0-.432.364V0h-.84V-3.864h.84v.52a1.773,1.773,0,0,1,.58-.436,1.753,1.753,0,0,1,.788-.18,1.254,1.254,0,0,1,.932.32,1.255,1.255,0,0,1,.316.92Zm2.984.1a1.986,1.986,0,0,1-1.456-.56,1.975,1.975,0,0,1-.568-1.472,2.012,2.012,0,0,1,.556-1.436,1.85,1.85,0,0,1,1.4-.588,1.747,1.747,0,0,1,1.376.588,2.192,2.192,0,0,1,.52,1.508v.208H63.5a1.169,1.169,0,0,0,.376.76,1.2,1.2,0,0,0,.848.3,1.5,1.5,0,0,0,1.1-.432l.384.552A2.2,2.2,0,0,1,64.648.1Zm1.024-2.352a1.137,1.137,0,0,0-.3-.708,1.013,1.013,0,0,0-.8-.308,1,1,0,0,0-.776.308,1.127,1.127,0,0,0-.3.708ZM69.208.1a1.986,1.986,0,0,1-1.456-.56,1.975,1.975,0,0,1-.568-1.472,2.012,2.012,0,0,1,.556-1.436,1.85,1.85,0,0,1,1.4-.588,1.747,1.747,0,0,1,1.376.588,2.192,2.192,0,0,1,.52,1.508v.208H68.064a1.169,1.169,0,0,0,.376.76,1.2,1.2,0,0,0,.848.3,1.5,1.5,0,0,0,1.1-.432l.384.552A2.2,2.2,0,0,1,69.208.1Zm1.024-2.352a1.137,1.137,0,0,0-.3-.708,1.013,1.013,0,0,0-.8-.308,1,1,0,0,0-.776.308,1.127,1.127,0,0,0-.3.708ZM72.816,0h-.84V-3.864h.84v.56a1.9,1.9,0,0,1,.564-.472,1.408,1.408,0,0,1,.692-.184v.832a1.159,1.159,0,0,0-.256-.024A1.242,1.242,0,0,0,73.244-3a1.056,1.056,0,0,0-.428.364Zm2.832-4.488a.5.5,0,0,1-.368.152.5.5,0,0,1-.368-.152.5.5,0,0,1-.152-.368.5.5,0,0,1,.152-.368.5.5,0,0,1,.368-.152.5.5,0,0,1,.368.152.5.5,0,0,1,.152.368A.5.5,0,0,1,75.648-4.488ZM75.7,0h-.84V-3.864h.84Zm4.648,0H79.5V-2.416a.8.8,0,0,0-.2-.616.837.837,0,0,0-.58-.184,1.128,1.128,0,0,0-.56.148,1.415,1.415,0,0,0-.432.364V0h-.84V-3.864h.84v.52a1.773,1.773,0,0,1,.58-.436,1.753,1.753,0,0,1,.788-.18,1.254,1.254,0,0,1,.932.32,1.255,1.255,0,0,1,.316.92Zm2.768,1.568A2.336,2.336,0,0,1,81.488.992L81.88.384a1.561,1.561,0,0,0,1.232.5,1.29,1.29,0,0,0,.812-.256A.975.975,0,0,0,84.256-.2V-.64a1.491,1.491,0,0,1-1.24.648A1.587,1.587,0,0,1,81.78-.52,2.1,2.1,0,0,1,81.3-1.976a2.107,2.107,0,0,1,.472-1.456,1.584,1.584,0,0,1,1.24-.528,1.476,1.476,0,0,1,1.24.632v-.536h.84V-.2a2,2,0,0,1-.172.86,1.271,1.271,0,0,1-.472.552,2.211,2.211,0,0,1-.628.272A2.864,2.864,0,0,1,83.112,1.568Zm.152-2.312a1.181,1.181,0,0,0,.564-.148,1.209,1.209,0,0,0,.428-.364V-2.7a1.209,1.209,0,0,0-.428-.364,1.181,1.181,0,0,0-.564-.148,1.007,1.007,0,0,0-.8.34,1.322,1.322,0,0,0-.3.9,1.306,1.306,0,0,0,.3.9A1.012,1.012,0,0,0,83.264-.744Zm8.4.744h-.84V-.424A1.569,1.569,0,0,1,89.568.1a1.4,1.4,0,0,1-.928-.344,1.16,1.16,0,0,1-.408-.936,1.137,1.137,0,0,1,.4-.944,1.454,1.454,0,0,1,.936-.32,1.576,1.576,0,0,1,1.256.5v-.576a.63.63,0,0,0-.252-.524,1.031,1.031,0,0,0-.652-.2,1.554,1.554,0,0,0-1.144.5l-.352-.584a2.248,2.248,0,0,1,1.624-.624,1.917,1.917,0,0,1,1.164.332,1.227,1.227,0,0,1,.452,1.06ZM89.9-.48a1.082,1.082,0,0,0,.92-.4v-.592a1.082,1.082,0,0,0-.92-.4.914.914,0,0,0-.6.192.618.618,0,0,0-.236.5.618.618,0,0,0,.236.5A.914.914,0,0,0,89.9-.48ZM96.312,0h-.84V-2.416a.8.8,0,0,0-.2-.616.837.837,0,0,0-.58-.184,1.128,1.128,0,0,0-.56.148A1.415,1.415,0,0,0,93.7-2.7V0h-.84V-3.864h.84v.52a1.773,1.773,0,0,1,.58-.436,1.753,1.753,0,0,1,.788-.18A1.254,1.254,0,0,1,96-3.64a1.255,1.255,0,0,1,.316.92Zm4.752,0h-.84V-.528A1.5,1.5,0,0,1,98.984.1a1.569,1.569,0,0,1-1.232-.544,2.17,2.17,0,0,1-.48-1.488,2.164,2.164,0,0,1,.48-1.472,1.559,1.559,0,0,1,1.232-.552,1.462,1.462,0,0,1,1.24.632V-5.336h.84ZM99.232-.648A1.179,1.179,0,0,0,99.8-.8a1.16,1.16,0,0,0,.424-.368V-2.7a1.16,1.16,0,0,0-.424-.368,1.179,1.179,0,0,0-.568-.152.989.989,0,0,0-.8.356,1.385,1.385,0,0,0-.3.924,1.4,1.4,0,0,0,.3.928A.984.984,0,0,0,99.232-.648ZM105.384,0h-.936V-5.336h.936Zm4.672,0h-.84V-2.416a.8.8,0,0,0-.2-.616.837.837,0,0,0-.58-.184,1.128,1.128,0,0,0-.56.148,1.415,1.415,0,0,0-.432.364V0h-.84V-3.864h.84v.52a1.773,1.773,0,0,1,.58-.436,1.753,1.753,0,0,1,.788-.18,1.254,1.254,0,0,1,.932.32,1.255,1.255,0,0,1,.316.92Zm2.24,0h-.84V-3.136h-.64v-.728h.64V-4.08a1.381,1.381,0,0,1,.332-.98,1.151,1.151,0,0,1,.884-.356,1.206,1.206,0,0,1,.928.336l-.328.52a.63.63,0,0,0-.44-.168q-.536,0-.536.648v.216h.784v.728H112.3Zm4.72-.488a1.875,1.875,0,0,1-1.44.584,1.869,1.869,0,0,1-1.44-.588,2.047,2.047,0,0,1-.544-1.444,2.029,2.029,0,0,1,.544-1.444,1.881,1.881,0,0,1,1.44-.58,1.881,1.881,0,0,1,1.44.58,2.029,2.029,0,0,1,.544,1.444A2.062,2.062,0,0,1,117.016-.488Zm-1.44-.16a.985.985,0,0,0,.816-.372,1.425,1.425,0,0,0,.3-.916,1.413,1.413,0,0,0-.3-.908.985.985,0,0,0-.816-.372.988.988,0,0,0-.812.372,1.4,1.4,0,0,0-.3.908,1.412,1.412,0,0,0,.3.916A.988.988,0,0,0,115.576-.648ZM119.36,0h-.84V-3.864h.84v.56a1.9,1.9,0,0,1,.564-.472,1.408,1.408,0,0,1,.692-.184v.832a1.159,1.159,0,0,0-.256-.024,1.242,1.242,0,0,0-.572.156,1.056,1.056,0,0,0-.428.364Zm7.624,0h-.84V-2.52q0-.7-.64-.7a.967.967,0,0,0-.512.152,1.192,1.192,0,0,0-.384.36V0h-.84V-2.52q0-.7-.632-.7a.947.947,0,0,0-.508.152,1.3,1.3,0,0,0-.388.36V0h-.84V-3.864h.84v.52a1.629,1.629,0,0,1,.512-.416,1.5,1.5,0,0,1,.752-.2,1.183,1.183,0,0,1,.688.188.922.922,0,0,1,.368.516,1.525,1.525,0,0,1,.54-.492,1.51,1.51,0,0,1,.772-.212,1.1,1.1,0,0,1,.824.3,1.2,1.2,0,0,1,.288.872Zm4.4,0h-.84V-.424a1.569,1.569,0,0,1-1.256.52,1.4,1.4,0,0,1-.928-.344,1.16,1.16,0,0,1-.408-.936,1.137,1.137,0,0,1,.4-.944,1.454,1.454,0,0,1,.936-.32,1.576,1.576,0,0,1,1.256.5v-.576a.63.63,0,0,0-.252-.524,1.031,1.031,0,0,0-.652-.2,1.554,1.554,0,0,0-1.144.5l-.352-.584a2.248,2.248,0,0,1,1.624-.624,1.917,1.917,0,0,1,1.164.332,1.227,1.227,0,0,1,.452,1.06Zm-1.76-.48a1.082,1.082,0,0,0,.92-.4v-.592a1.082,1.082,0,0,0-.92-.4.914.914,0,0,0-.6.192.618.618,0,0,0-.236.5.618.618,0,0,0,.236.5A.914.914,0,0,0,129.624-.48Zm4.12.576a.88.88,0,0,1-.992-1V-3.136h-.64v-.728h.64V-4.92h.84v1.056h.784v.728h-.784v2.024a.546.546,0,0,0,.1.336.32.32,0,0,0,.272.128.467.467,0,0,0,.368-.144l.2.64A1.143,1.143,0,0,1,133.744.1Zm2.28-4.584a.5.5,0,0,1-.368.152.5.5,0,0,1-.368-.152.5.5,0,0,1-.152-.368.5.5,0,0,1,.152-.368.5.5,0,0,1,.368-.152.5.5,0,0,1,.368.152.5.5,0,0,1,.152.368A.5.5,0,0,1,136.024-4.488ZM136.072,0h-.84V-3.864h.84Zm4.384-.488a1.875,1.875,0,0,1-1.44.584,1.869,1.869,0,0,1-1.44-.588,2.047,2.047,0,0,1-.544-1.444,2.029,2.029,0,0,1,.544-1.444,1.881,1.881,0,0,1,1.44-.58,1.881,1.881,0,0,1,1.44.58A2.029,2.029,0,0,1,141-1.936,2.062,2.062,0,0,1,140.456-.488Zm-1.44-.16a.985.985,0,0,0,.816-.372,1.425,1.425,0,0,0,.3-.916,1.413,1.413,0,0,0-.3-.908.985.985,0,0,0-.816-.372.988.988,0,0,0-.812.372,1.4,1.4,0,0,0-.3.908,1.412,1.412,0,0,0,.3.916A.988.988,0,0,0,139.016-.648Zm6.4.648h-.84V-2.416a.8.8,0,0,0-.2-.616.837.837,0,0,0-.58-.184,1.128,1.128,0,0,0-.56.148,1.415,1.415,0,0,0-.432.364V0h-.84V-3.864h.84v.52a1.773,1.773,0,0,1,.58-.436,1.753,1.753,0,0,1,.788-.18,1.254,1.254,0,0,1,.932.32,1.255,1.255,0,0,1,.316.92Zm5.592,0h-.936V-4.512h-1.616v-.824h4.168v.824h-1.616Zm3.44.1a1.986,1.986,0,0,1-1.456-.56,1.975,1.975,0,0,1-.568-1.472,2.012,2.012,0,0,1,.556-1.436,1.85,1.85,0,0,1,1.4-.588,1.747,1.747,0,0,1,1.376.588,2.192,2.192,0,0,1,.52,1.508v.208H153.3a1.169,1.169,0,0,0,.376.76,1.2,1.2,0,0,0,.848.3,1.5,1.5,0,0,0,1.1-.432l.384.552A2.2,2.2,0,0,1,154.448.1Zm1.024-2.352a1.137,1.137,0,0,0-.3-.708,1.013,1.013,0,0,0-.8-.308,1,1,0,0,0-.776.308,1.127,1.127,0,0,0-.3.708ZM158.976.1a1.911,1.911,0,0,1-1.432-.576,2,2,0,0,1-.56-1.456,1.99,1.99,0,0,1,.56-1.452,1.918,1.918,0,0,1,1.432-.572,1.732,1.732,0,0,1,1.48.688l-.552.5a1.031,1.031,0,0,0-.888-.448,1.088,1.088,0,0,0-.844.356,1.32,1.32,0,0,0-.324.924,1.334,1.334,0,0,0,.324.928,1.082,1.082,0,0,0,.844.36,1.032,1.032,0,0,0,.888-.464l.552.52A1.745,1.745,0,0,1,158.976.1ZM164.76,0h-.84V-2.432a.788.788,0,0,0-.2-.608.843.843,0,0,0-.58-.176,1.143,1.143,0,0,0-.568.148,1.322,1.322,0,0,0-.424.364V0h-.84V-5.336h.84v1.992a1.783,1.783,0,0,1,.576-.436,1.728,1.728,0,0,1,.784-.18,1.093,1.093,0,0,1,1.248,1.224Zm4.648,0h-.84V-2.416a.8.8,0,0,0-.2-.616.837.837,0,0,0-.58-.184,1.128,1.128,0,0,0-.56.148,1.415,1.415,0,0,0-.432.364V0h-.84V-3.864h.84v.52a1.773,1.773,0,0,1,.58-.436,1.753,1.753,0,0,1,.788-.18,1.254,1.254,0,0,1,.932.32,1.255,1.255,0,0,1,.316.92Zm4.384-.488a1.875,1.875,0,0,1-1.44.584,1.869,1.869,0,0,1-1.44-.588,2.047,2.047,0,0,1-.544-1.444,2.029,2.029,0,0,1,.544-1.444,1.881,1.881,0,0,1,1.44-.58,1.881,1.881,0,0,1,1.44.58,2.029,2.029,0,0,1,.544,1.444A2.062,2.062,0,0,1,173.792-.488Zm-1.44-.16a.985.985,0,0,0,.816-.372,1.425,1.425,0,0,0,.3-.916,1.413,1.413,0,0,0-.3-.908.985.985,0,0,0-.816-.372.988.988,0,0,0-.812.372,1.4,1.4,0,0,0-.3.908,1.412,1.412,0,0,0,.3.916A.988.988,0,0,0,172.352-.648ZM176.136,0h-.84V-5.336h.84Zm4.384-.488A1.875,1.875,0,0,1,179.08.1a1.869,1.869,0,0,1-1.44-.588,2.047,2.047,0,0,1-.544-1.444,2.029,2.029,0,0,1,.544-1.444,1.881,1.881,0,0,1,1.44-.58,1.881,1.881,0,0,1,1.44.58,2.029,2.029,0,0,1,.544,1.444A2.062,2.062,0,0,1,180.52-.488Zm-1.44-.16a.985.985,0,0,0,.816-.372,1.425,1.425,0,0,0,.3-.916,1.413,1.413,0,0,0-.3-.908.985.985,0,0,0-.816-.372.988.988,0,0,0-.812.372,1.4,1.4,0,0,0-.3.908,1.412,1.412,0,0,0,.3.916A.988.988,0,0,0,179.08-.648Zm4.52,2.216a2.336,2.336,0,0,1-1.624-.576l.392-.608a1.561,1.561,0,0,0,1.232.5,1.29,1.29,0,0,0,.812-.256.975.975,0,0,0,.332-.824V-.64a1.491,1.491,0,0,1-1.24.648,1.587,1.587,0,0,1-1.236-.528,2.1,2.1,0,0,1-.476-1.456,2.107,2.107,0,0,1,.472-1.456,1.584,1.584,0,0,1,1.24-.528,1.476,1.476,0,0,1,1.24.632v-.536h.84V-.2a2,2,0,0,1-.172.86,1.271,1.271,0,0,1-.472.552,2.211,2.211,0,0,1-.628.272A2.865,2.865,0,0,1,183.6,1.568Zm.152-2.312a1.181,1.181,0,0,0,.564-.148,1.209,1.209,0,0,0,.428-.364V-2.7a1.209,1.209,0,0,0-.428-.364,1.181,1.181,0,0,0-.564-.148,1.007,1.007,0,0,0-.8.34,1.322,1.322,0,0,0-.3.9,1.306,1.306,0,0,0,.3.9A1.012,1.012,0,0,0,183.752-.744Zm2.864,2.256.12-.752a.779.779,0,0,0,.32.064.551.551,0,0,0,.56-.336l.192-.44-1.592-3.912h.9l1.128,2.9,1.128-2.9h.9L188.408.7a1.33,1.33,0,0,1-.516.668,1.581,1.581,0,0,1-.8.2A1.708,1.708,0,0,1,186.616,1.512Z" transform="translate(6328 1.8)" fill="#162443"/></g></svg>